<svg
   viewBox="0 0 54.186666 54.186667"
   width="64"
   height="64"
   id="svg"
   class="animated-svg"
>
   <path
     d="M135.731 285.85v173.93c0 21.517 11.478 41.418 30.125 52.168l150.624 86.976a60.223 60.223 0 0 0 60.25 0l150.623-86.976a60.237 60.237 0 0 0 30.124-52.169V285.851c0-21.525-11.477-41.423-30.124-52.177L376.729 146.72a60.21 60.21 0 0 0-60.249 0l-150.624 86.954a60.245 60.245 0 0 0-30.125 52.177z"
     fill="#ffffff"
     transform="matrix(.1 0 0 .1 -7.567 -10.189)"
     id="path12"
   />
   <path
     d="M54.056 98.03v6.855a1.711 1.711 0 0 0 1.714 1.714 1.713 1.713 0 0 0 1.714-1.714 1.713 1.713 0 1 1 3.427 0 5.14 5.14 0 1 1-10.282 0v-6.854a5.14 5.14 0 1 1 10.282 0 1.712 1.712 0 1 1-3.427 0 1.712 1.712 0 1 0-3.427 0zm27.418 6.855a1.712 1.712 0 0 1-1.714 1.714h-1.714v1.713c0 .455-.18.891-.502 1.212a1.71 1.71 0 0 1-2.423 0 1.719 1.719 0 0 1-.502-1.212v-1.713h-3.427v1.713a1.71 1.71 0 0 1-1.714 1.714 1.71 1.71 0 0 1-1.713-1.714v-1.713H66.05a1.713 1.713 0 1 1 0-3.427h1.714v-3.427H66.05a1.712 1.712 0 1 1 0-3.427h1.714v-1.714a1.713 1.713 0 1 1 3.427 0v1.713h3.427v-1.713a1.712 1.712 0 1 1 3.427 0v1.713h1.714c.454 0 .89.18 1.211.502a1.71 1.71 0 0 1 0 2.423 1.712 1.712 0 0 1-1.211.503h-1.714v3.427h1.714a1.718 1.718 0 0 1 1.714 1.713zm-6.855-5.14h-3.427v3.427h3.427z"
     fill="#000000"
     class="black-to-gray" 
     transform="matrix(.879 0 0 .879 -30.965 -62.086)"
     id="path13"
   />
</svg>
